<svg height="1966" width="720" xmlns="http://www.w3.org/2000/svg">
<rect height="1966" fill="#555" width="720"></rect>
<text fill="#7f7" font-family="Courier New" font-size="12" xml:space="preserve">
<tspan x="10" y="26">75 megabytes installed</tspan>
<tspan x="10" y="42"></tspan>
<tspan x="10" y="58">node_modules</tspan>
<tspan x="10" y="74">└─┬ spacejam@1.6.1 </tspan>
<tspan x="10" y="90">  ├─┬ chai@1.9.2 </tspan>
<tspan x="10" y="106">  │ ├── assertion-error@1.0.0 </tspan>
<tspan x="10" y="122">  │ └─┬ deep-eql@0.1.3 </tspan>
<tspan x="10" y="138">  │   └── type-detect@0.1.1 </tspan>
<tspan x="10" y="154">  ├─┬ glob@4.0.6 </tspan>
<tspan x="10" y="170">  │ ├─┬ graceful-fs@3.0.11 </tspan>
<tspan x="10" y="186">  │ │ └── natives@1.1.0 </tspan>
<tspan x="10" y="202">  │ ├── inherits@2.0.3 </tspan>
<tspan x="10" y="218">  │ ├─┬ minimatch@1.0.0 </tspan>
<tspan x="10" y="234">  │ │ ├── lru-cache@2.7.3 </tspan>
<tspan x="10" y="250">  │ │ └── sigmund@1.0.1 </tspan>
<tspan x="10" y="266">  │ └─┬ once@1.4.0 </tspan>
<tspan x="10" y="282">  │   └── wrappy@1.0.2 </tspan>
<tspan x="10" y="298">  ├── loglevel@1.1.0 </tspan>
<tspan x="10" y="314">  ├─┬ phantomjs-prebuilt@2.1.14 </tspan>
<tspan x="10" y="330">  │ ├── es6-promise@4.0.5 </tspan>
<tspan x="10" y="346">  │ ├─┬ extract-zip@1.5.0 </tspan>
<tspan x="10" y="362">  │ │ ├─┬ concat-stream@1.5.0 </tspan>
<tspan x="10" y="378">  │ │ │ ├─┬ readable-stream@2.0.6 </tspan>
<tspan x="10" y="394">  │ │ │ │ ├── core-util-is@1.0.2 </tspan>
<tspan x="10" y="410">  │ │ │ │ ├── isarray@1.0.0 </tspan>
<tspan x="10" y="426">  │ │ │ │ ├── process-nextick-args@1.0.7 </tspan>
<tspan x="10" y="442">  │ │ │ │ ├── string_decoder@0.10.31 </tspan>
<tspan x="10" y="458">  │ │ │ │ └── util-deprecate@1.0.2 </tspan>
<tspan x="10" y="474">  │ │ │ └── typedarray@0.0.6 </tspan>
<tspan x="10" y="490">  │ │ ├── debug@0.7.4 </tspan>
<tspan x="10" y="506">  │ │ ├── mkdirp@0.5.0 </tspan>
<tspan x="10" y="522">  │ │ └─┬ yauzl@2.4.1 </tspan>
<tspan x="10" y="538">  │ │   └─┬ fd-slicer@1.0.1 </tspan>
<tspan x="10" y="554">  │ │     └── pend@1.2.0 </tspan>
<tspan x="10" y="570">  │ ├─┬ fs-extra@1.0.0 </tspan>
<tspan x="10" y="586">  │ │ ├── graceful-fs@4.1.11 </tspan>
<tspan x="10" y="602">  │ │ ├─┬ jsonfile@2.4.0 </tspan>
<tspan x="10" y="618">  │ │ │ └── graceful-fs@4.1.11 </tspan>
<tspan x="10" y="634">  │ │ └─┬ klaw@1.3.1 </tspan>
<tspan x="10" y="650">  │ │   └── graceful-fs@4.1.11 </tspan>
<tspan x="10" y="666">  │ ├─┬ hasha@2.2.0 </tspan>
<tspan x="10" y="682">  │ │ ├── is-stream@1.1.0 </tspan>
<tspan x="10" y="698">  │ │ └─┬ pinkie-promise@2.0.1 </tspan>
<tspan x="10" y="714">  │ │   └── pinkie@2.0.4 </tspan>
<tspan x="10" y="730">  │ ├── kew@0.7.0 </tspan>
<tspan x="10" y="746">  │ ├── progress@1.1.8 </tspan>
<tspan x="10" y="762">  │ ├─┬ request@2.79.0 </tspan>
<tspan x="10" y="778">  │ │ ├── aws-sign2@0.6.0 </tspan>
<tspan x="10" y="794">  │ │ ├── aws4@1.6.0 </tspan>
<tspan x="10" y="810">  │ │ ├── caseless@0.11.0 </tspan>
<tspan x="10" y="826">  │ │ ├─┬ combined-stream@1.0.5 </tspan>
<tspan x="10" y="842">  │ │ │ └── delayed-stream@1.0.0 </tspan>
<tspan x="10" y="858">  │ │ ├── extend@3.0.0 </tspan>
<tspan x="10" y="874">  │ │ ├── forever-agent@0.6.1 </tspan>
<tspan x="10" y="890">  │ │ ├─┬ form-data@2.1.4 </tspan>
<tspan x="10" y="906">  │ │ │ └── asynckit@0.4.0 </tspan>
<tspan x="10" y="922">  │ │ ├─┬ har-validator@2.0.6 </tspan>
<tspan x="10" y="938">  │ │ │ ├─┬ chalk@1.1.3 </tspan>
<tspan x="10" y="954">  │ │ │ │ ├── ansi-styles@2.2.1 </tspan>
<tspan x="10" y="970">  │ │ │ │ ├── escape-string-regexp@1.0.5 </tspan>
<tspan x="10" y="986">  │ │ │ │ ├─┬ has-ansi@2.0.0 </tspan>
<tspan x="10" y="1002">  │ │ │ │ │ └── ansi-regex@2.1.1 </tspan>
<tspan x="10" y="1018">  │ │ │ │ ├── strip-ansi@3.0.1 </tspan>
<tspan x="10" y="1034">  │ │ │ │ └── supports-color@2.0.0 </tspan>
<tspan x="10" y="1050">  │ │ │ ├─┬ commander@2.9.0 </tspan>
<tspan x="10" y="1066">  │ │ │ │ └── graceful-readlink@1.0.1 </tspan>
<tspan x="10" y="1082">  │ │ │ └─┬ is-my-json-valid@2.16.0 </tspan>
<tspan x="10" y="1098">  │ │ │   ├── generate-function@2.0.0 </tspan>
<tspan x="10" y="1114">  │ │ │   ├─┬ generate-object-property@1.2.0 </tspan>
<tspan x="10" y="1130">  │ │ │   │ └── is-property@1.0.2 </tspan>
<tspan x="10" y="1146">  │ │ │   ├── jsonpointer@4.0.1 </tspan>
<tspan x="10" y="1162">  │ │ │   └── xtend@4.0.1 </tspan>
<tspan x="10" y="1178">  │ │ ├─┬ hawk@3.1.3 </tspan>
<tspan x="10" y="1194">  │ │ │ ├── boom@2.10.1 </tspan>
<tspan x="10" y="1210">  │ │ │ ├── cryptiles@2.0.5 </tspan>
<tspan x="10" y="1226">  │ │ │ ├── hoek@2.16.3 </tspan>
<tspan x="10" y="1242">  │ │ │ └── sntp@1.0.9 </tspan>
<tspan x="10" y="1258">  │ │ ├─┬ http-signature@1.1.1 </tspan>
<tspan x="10" y="1274">  │ │ │ ├── assert-plus@0.2.0 </tspan>
<tspan x="10" y="1290">  │ │ │ ├─┬ jsprim@1.4.0 </tspan>
<tspan x="10" y="1306">  │ │ │ │ ├── assert-plus@1.0.0 </tspan>
<tspan x="10" y="1322">  │ │ │ │ ├── extsprintf@1.0.2 </tspan>
<tspan x="10" y="1338">  │ │ │ │ ├── json-schema@0.2.3 </tspan>
<tspan x="10" y="1354">  │ │ │ │ └── verror@1.3.6 </tspan>
<tspan x="10" y="1370">  │ │ │ └─┬ sshpk@1.13.0 </tspan>
<tspan x="10" y="1386">  │ │ │   ├── asn1@0.2.3 </tspan>
<tspan x="10" y="1402">  │ │ │   ├── assert-plus@1.0.0 </tspan>
<tspan x="10" y="1418">  │ │ │   ├── bcrypt-pbkdf@1.0.1 </tspan>
<tspan x="10" y="1434">  │ │ │   ├─┬ dashdash@1.14.1 </tspan>
<tspan x="10" y="1450">  │ │ │   │ └── assert-plus@1.0.0 </tspan>
<tspan x="10" y="1466">  │ │ │   ├── ecc-jsbn@0.1.1 </tspan>
<tspan x="10" y="1482">  │ │ │   ├─┬ getpass@0.1.6 </tspan>
<tspan x="10" y="1498">  │ │ │   │ └── assert-plus@1.0.0 </tspan>
<tspan x="10" y="1514">  │ │ │   ├── jodid25519@1.0.2 </tspan>
<tspan x="10" y="1530">  │ │ │   ├── jsbn@0.1.1 </tspan>
<tspan x="10" y="1546">  │ │ │   └── tweetnacl@0.14.5 </tspan>
<tspan x="10" y="1562">  │ │ ├── is-typedarray@1.0.0 </tspan>
<tspan x="10" y="1578">  │ │ ├── isstream@0.1.2 </tspan>
<tspan x="10" y="1594">  │ │ ├── json-stringify-safe@5.0.1 </tspan>
<tspan x="10" y="1610">  │ │ ├─┬ mime-types@2.1.15 </tspan>
<tspan x="10" y="1626">  │ │ │ └── mime-db@1.27.0 </tspan>
<tspan x="10" y="1642">  │ │ ├── oauth-sign@0.8.2 </tspan>
<tspan x="10" y="1658">  │ │ ├── qs@6.3.2 </tspan>
<tspan x="10" y="1674">  │ │ ├── stringstream@0.0.5 </tspan>
<tspan x="10" y="1690">  │ │ ├─┬ tough-cookie@2.3.2 </tspan>
<tspan x="10" y="1706">  │ │ │ └── punycode@1.4.1 </tspan>
<tspan x="10" y="1722">  │ │ ├── tunnel-agent@0.4.3 </tspan>
<tspan x="10" y="1738">  │ │ └── uuid@3.0.1 </tspan>
<tspan x="10" y="1754">  │ ├─┬ request-progress@2.0.1 </tspan>
<tspan x="10" y="1770">  │ │ └── throttleit@1.0.0 </tspan>
<tspan x="10" y="1786">  │ └─┬ which@1.2.14 </tspan>
<tspan x="10" y="1802">  │   └── isexe@2.0.0 </tspan>
<tspan x="10" y="1818">  ├─┬ psext@0.0.4 </tspan>
<tspan x="10" y="1834">  │ └── table-parser@0.0.3 </tspan>
<tspan x="10" y="1850">  ├─┬ rc@0.5.1 </tspan>
<tspan x="10" y="1866">  │ ├── deep-extend@0.2.11 </tspan>
<tspan x="10" y="1882">  │ ├── ini@1.1.0 </tspan>
<tspan x="10" y="1898">  │ ├── minimist@0.0.8 </tspan>
<tspan x="10" y="1914">  │ └── strip-json-comments@0.1.3 </tspan>
<tspan x="10" y="1930">  ├── semver@4.1.0 </tspan>
<tspan x="10" y="1946">  └── underscore@1.7.0</tspan>
</text>
</svg>
